<svg width="21" height="20" viewBox="0 0 21 20" fill="none" xmlns="http://www.w3.org/2000/svg">
<path fill-rule="evenodd" clip-rule="evenodd" d="M9.00064 0C4.39232 0 0.65625 3.73598 0.65625 8.3442C0.65625 12.9524 4.39232 16.6884 9.00064 16.6884C13.609 16.6884 17.345 12.9524 17.345 8.3442C17.345 3.73598 13.609 0 9.00064 0ZM9.00081 1.56447C12.469 1.57001 15.3693 4.20136 15.7109 7.65247C16.0528 11.1036 13.7248 14.2529 10.3255 14.9383C6.9258 15.6241 3.55936 13.6235 2.53685 10.3096C1.51433 6.99569 3.16757 3.44615 6.36223 2.09674C7.197 1.74363 8.09443 1.5626 9.00081 1.56447ZM19.3217 19.7709C19.4681 19.9182 19.6673 20.0008 19.8749 20.0004C20.1913 20.0003 20.4765 19.8095 20.5972 19.517C20.7182 19.2247 20.6513 18.8884 20.4277 18.6647L16.4641 14.7012C16.1574 14.4046 15.6694 14.4088 15.3676 14.7106C15.0661 15.0124 15.0619 15.5004 15.3581 15.8074L19.3217 19.7709Z" fill="white"/>
</svg>
